<svg id="visual" viewBox="0 0 900 600" width="900" height="600" xmlns="http://www.w3.org/2000/svg" xmlns:xlink="http://www.w3.org/1999/xlink" version="1.1"><rect width="900" height="600" fill="#931F1F"></rect><g><g transform="translate(714 474)"><path d="M93.1 -28.8C107.1 12.8 95.5 64.1 63.1 87.8C30.8 111.5 -22.3 107.6 -53.8 82.7C-85.3 57.8 -95.1 11.8 -82.6 -27.8C-70 -67.3 -35 -100.5 2.3 -101.3C39.6 -102 79.1 -70.3 93.1 -28.8Z" fill="none" stroke="#F7760E" stroke-width="20"></path></g><g transform="translate(155 443)"><path d="M80.4 -22.4C92.1 9.8 81.1 53.1 54.3 71.8C27.6 90.5 -14.8 84.6 -43.8 62.9C-72.8 41.2 -88.4 3.7 -78.9 -25.6C-69.3 -54.9 -34.7 -76 -0.2 -75.9C34.4 -75.9 68.7 -54.7 80.4 -22.4Z" fill="none" stroke="#F7760E" stroke-width="20"></path></g><g transform="translate(208 122)"><path d="M47.1 -13.3C54.1 6.3 48.1 32.2 32.3 43.5C16.4 54.8 -9.3 51.5 -25.9 38.7C-42.5 25.9 -50 3.6 -44.1 -14.4C-38.3 -32.3 -19.2 -46 0.4 -46.1C20 -46.2 40.1 -32.9 47.1 -13.3Z" fill="none" stroke="#F7760E" stroke-width="20"></path></g></g></svg>